<svg xmlns="http://www.w3.org/2000/svg" xmlns:xlink="http://www.w3.org/1999/xlink" width="28" height="28" viewBox="0 0 36 36" version="1.1">
<g id="surface1">
<path style=" stroke:none;fill-rule:nonzero;fill:#ffffff;fill-opacity:1;" d="M 17.96875 0 C 8.496094 0 0.738281 7.285156 0 16.542969 L 9.664062 20.527344 C 10.484375 19.96875 11.472656 19.644531 12.535156 19.644531 C 12.632812 19.644531 12.726562 19.644531 12.820312 19.652344 L 17.117188 13.4375 L 17.117188 13.347656 C 17.117188 9.609375 20.167969 6.566406 23.917969 6.566406 C 27.667969 6.566406 30.71875 9.609375 30.71875 13.347656 C 30.71875 17.089844 27.667969 20.132812 23.917969 20.132812 C 23.867188 20.132812 23.816406 20.132812 23.765625 20.128906 L 17.632812 24.492188 C 17.636719 24.574219 17.640625 24.652344 17.640625 24.734375 C 17.640625 27.542969 15.351562 29.824219 12.535156 29.824219 C 10.066406 29.824219 8 28.066406 7.53125 25.738281 L 0.621094 22.886719 C 2.761719 30.4375 9.714844 35.96875 17.96875 35.96875 C 27.925781 35.96875 36 27.917969 36 17.984375 C 36 8.050781 27.925781 0 17.96875 0 Z M 11.300781 27.289062 L 9.085938 26.375 C 9.476562 27.191406 10.15625 27.875 11.058594 28.25 C 13.007812 29.058594 15.253906 28.136719 16.066406 26.191406 C 16.460938 25.25 16.460938 24.210938 16.074219 23.269531 C 15.683594 22.324219 14.949219 21.589844 14.003906 21.195312 C 13.066406 20.808594 12.0625 20.820312 11.179688 21.152344 L 13.46875 22.097656 C 14.90625 22.695312 15.585938 24.339844 14.988281 25.773438 C 14.386719 27.207031 12.738281 27.886719 11.300781 27.289062 Z M 28.449219 13.347656 C 28.449219 10.859375 26.417969 8.828125 23.917969 8.828125 C 21.421875 8.828125 19.386719 10.859375 19.386719 13.347656 C 19.386719 15.839844 21.421875 17.867188 23.917969 17.867188 C 26.417969 17.867188 28.449219 15.839844 28.449219 13.347656 Z M 20.523438 13.34375 C 20.523438 11.46875 22.046875 9.949219 23.925781 9.949219 C 25.804688 9.949219 27.328125 11.46875 27.328125 13.34375 C 27.328125 15.214844 25.804688 16.734375 23.925781 16.734375 C 22.046875 16.734375 20.523438 15.214844 20.523438 13.34375 Z M 20.523438 13.34375 "/>
</g>
</svg>